<svg xmlns="http://www.w3.org/2000/svg" viewBox="0 0 438.00 405.00" data-guides="{&quot;vertical&quot;:[],&quot;horizontal&quot;:[]}"><defs/><path fill="#8a00af" fill-opacity="1" stroke="#000000" stroke-opacity="1" stroke-width="1" id="tSvg27e808940a" title="Ellipse 1" d="M219 1C339.3981 1 437 91.2146 437 202.5C437 313.7854 339.3981 404 219 404C98.6019 404 1 313.7854 1 202.5C1 91.2146 98.6019 1 219 1Z" style="transform-origin: 219px 202.5px;"/><path fill="#8a00af" stroke="none" fill-opacity="1" stroke-width="1" stroke-opacity="1" id="tSvg15c3e732823" title="Path 1" d="M226 1C226 1 226 1 226 1H437C437 1 437 1 437 1V403C437 403 437 403 437 403H226C226 403 226 403 226 403Z"/><text font-size="100.00px" font-weight="400" font-style="normal" text-anchor="middle" letter-spacing="0px" word-spacing="normal" data-lh="1" data-tt="none" stroke="none" stroke-width="0" id="tSvg183308db738" data-ff="Verdana" x="-111.50" y="225.00" width="880" height="203" title="Curiosity about life" fill="#ffffff" fill-opacity="1" stroke-opacity="1" data-valign="middle" data-fs="normal" data-text="TM" style="font-family: Verdana; text-decoration: none; transform-origin: 328.5px 326.5px;"><tspan y="361.50" x="328.50">TM</tspan></text></svg>